<svg xmlns="http://www.w3.org/2000/svg" width="800" height="800" viewBox="0 0 800 800">
  <defs>
    <linearGradient id="g1" x1="0" y1="0" x2="0" y2="1">
      <stop offset="0" stop-color="#ffd7e8"/>
      <stop offset="1" stop-color="#ffc2db"/>
    </linearGradient>
    <linearGradient id="g2" x1="0" y1="0" x2="1" y2="1">
      <stop offset="0" stop-color="#fbe7a1"/>
      <stop offset="1" stop-color="#f7b267"/>
    </linearGradient>
  </defs>
  <rect width="800" height="800" rx="48" fill="#fff"/>
  <circle cx="400" cy="420" r="300" fill="#ffe9f3"/>
  <g transform="translate(120,220)">
    <rect x="60" y="260" width="440" height="40" rx="20" fill="#f0e6ef"/>
    <rect x="80" y="80" width="400" height="220" rx="24" fill="url(#g1)"/>
    <rect x="80" y="180" width="400" height="28" fill="url(#g2)"/>
    <rect x="100" y="40" width="360" height="60" rx="20" fill="#ffe3ef"/>
    <g>
      <rect x="250" y="-10" width="60" height="80" rx="12" fill="#ffc2db"/>
      <circle cx="280" cy="-18" r="10" fill="#ffd35f"/>
    </g>
    <g fill="#f7cad0">
      <circle cx="120" cy="210" r="6"/>
      <circle cx="160" cy="210" r="6"/>
      <circle cx="200" cy="210" r="6"/>
      <circle cx="240" cy="210" r="6"/>
      <circle cx="280" cy="210" r="6"/>
      <circle cx="320" cy="210" r="6"/>
      <circle cx="360" cy="210" r="6"/>
    </g>
  </g>
</svg>
